<svg width="512" height="512" xmlns="http://www.w3.org/2000/svg" class="feather feather-clipboard" stroke-linejoin="round" stroke-linecap="round" stroke-width="2" stroke="currentColor" fill="none">

 <g>
  <title>Layer 1</title>
  <g stroke-width="10" id="svg_3">
   <path id="svg_1" d="m316.5,136.25l26.75,0a26.75,26.75 0 0 1 26.75,26.75l0,187.25a26.75,26.75 0 0 1 -26.75,26.75l-160.5,0a26.75,26.75 0 0 1 -26.75,-26.75l0,-187.25a26.75,26.75 0 0 1 26.75,-26.75l26.75,0"/>
   <rect id="svg_2" ry="1" rx="1" height="53.5" width="107" y="109.5" x="209.5"/>
  </g>
  <rect stroke="#ffffff" fill="#ffffff" id="svg_6" height="142.00013" width="23" y="189.59997" x="364.49998"/>
  <g stroke-width="10">
   <polyline points="342.8683811426163,253.5526580810547 366.5525852441788,277.23687744140625 445.4999729394913,198.2894744873047 "/>
   <path d="m437.60509,261.44737l0,55.26316a15.78947,15.78947 0 0 1 -15.78947,15.78947l-110.52631,0a15.78947,15.78947 0 0 1 -15.78947,-15.78947l0,-110.52631a15.78947,15.78947 0 0 1 15.78947,-15.78947l86.8421,0"/>
  </g>
  <g stroke-width="10">
   <line y2="244.11095" x2="199.00271" y1="244.11095" x1="287.00368"/>
   <line y2="213.66614" x2="199.00271" y1="213.66614" x1="287.00368"/>
   <line y2="274.55576" x2="199.00271" y1="274.55576" x1="287.00368"/>
   <line y2="305.00058" x2="199.00271" y1="305.00058" x1="287.00368"/>
  </g>
 </g>
</svg>