<svg width="512" height="512" xmlns="http://www.w3.org/2000/svg" class="feather feather-clipboard" stroke-linejoin="round" stroke-linecap="round" stroke-width="2" stroke="currentColor" fill="none">
 <title>DailyFlowIcon</title>

 <g>
  <title>Layer 1</title>
  <g id="svg_8">
   <g stroke-width="10" id="svg_3">
    <path id="svg_1" d="m271.75002,136.25l26.75,0a26.75,26.75 0 0 1 26.75,26.75l0,187.25a26.75,26.75 0 0 1 -26.75,26.75l-160.5,0a26.75,26.75 0 0 1 -26.75,-26.75l0,-187.25a26.75,26.75 0 0 1 26.75,-26.75l26.75,0"/>
    <rect id="svg_2" ry="1" rx="1" height="53.5" width="107" y="109.5" x="164.75002"/>
   </g>
   <rect stroke="#ffffff" fill="#ffffff" id="svg_6" height="142.00013" width="23" y="189.59997" x="319.75"/>
   <g stroke-width="10">
    <polyline points="298.11839294433594,253.5526580810547 321.80259704589844,277.23687744140625 400.74998474121094,198.2894744873047 "/>
    <path d="m392.8551,261.44737l0,55.26316a15.78947,15.78947 0 0 1 -15.78947,15.78947l-110.52631,0a15.78947,15.78947 0 0 1 -15.78947,-15.78947l0,-110.52631a15.78947,15.78947 0 0 1 15.78947,-15.78947l86.8421,0"/>
   </g>
   <g stroke-width="10">
    <line y2="244.11095" x2="154.25272" y1="244.11095" x1="242.25369"/>
    <line y2="213.66614" x2="154.25272" y1="213.66614" x1="242.25369"/>
    <line y2="274.55576" x2="154.25272" y1="274.55576" x1="242.25369"/>
    <line y2="305.00058" x2="154.25272" y1="305.00058" x1="242.25369"/>
   </g>
  </g>
 </g>
</svg>